<?xml version="1.0" encoding="UTF-8" standalone="no"?>
<!DOCTYPE svg PUBLIC "-//W3C//DTD SVG 1.1//EN" "http://www.w3.org/Graphics/SVG/1.1/DTD/svg11.dtd">
<svg width="100%" height="100%" viewBox="0 0 414 62" version="1.1" xmlns="http://www.w3.org/2000/svg" xmlns:xlink="http://www.w3.org/1999/xlink" xml:space="preserve" xmlns:serif="http://www.serif.com/" style="fill-rule:evenodd;clip-rule:evenodd;stroke-linejoin:round;stroke-miterlimit:2;">
    <g transform="matrix(1,0,0,1,-490.250458,-116.02518)">
        <g transform="matrix(0.133399,0,0,0.133399,1774.628097,65.647517)">
            <g transform="matrix(0.847242,0,0,0.847242,90.126694,117.190216)">
                <g transform="matrix(0.262265,0,0,0.262265,-11681.949459,264.004211)">
                    <path d="M2492.326,1982C2501.657,1975.476 2511.217,1969.217 2521.244,1963.826C2532.164,1957.956 2546.927,1951.748 2557.842,1946.778C2567.426,1942.416 2576.836,1939.51 2586.736,1934.01C2596.48,1928.597 2604.813,1916.335 2613.024,1907C2620.847,1898.106 2631.337,1886.372 2639.863,1875.541C2648.627,1864.406 2656.944,1851.911 2665.611,1840.188C2674.55,1828.098 2686.597,1813.491 2693.496,1803C2704.922,1785.627 2714.513,1766.894 2721.863,1747.442C2729.975,1725.971 2753.977,1669.446 2766,1634.372C2771.962,1616.98 2776.147,1591.726 2780.814,1574.101C2784.854,1558.844 2788.598,1543.455 2794,1528.625C2800.364,1511.154 2808.898,1488.216 2819,1469.275C2830.167,1448.338 2849.833,1413.736 2861,1396.523C2868.158,1385.49 2885.239,1360.421 2896.905,1345C2907.63,1330.825 2925.886,1308.377 2942.446,1291.995C2950.9,1283.633 2964.459,1270.068 2973.718,1262.235C2981.295,1255.825 2990.003,1248.681 2998.715,1242.677C3008.928,1235.638 3026.501,1227.448 3036.715,1223.002C3044.147,1219.767 3056.51,1215.595 3065.146,1214.428C3072.889,1213.381 3080.947,1213.008 3088.63,1214.428C3096.366,1215.857 3104.646,1218.932 3111.559,1223.002C3118.637,1227.168 3125.945,1232.751 3131,1237.639C3135.382,1241.877 3139.76,1246.372 3143.108,1251.519C3146.632,1256.936 3149.545,1263.751 3152.143,1270.143C3154.885,1276.889 3157.321,1284.636 3159.559,1291.995C3162.131,1300.449 3162.568,1324.293 3162.568,1324.293C3162.568,1324.293 3173.283,1305.054 3175.426,1294.711C3177.569,1284.368 3175.784,1272.067 3173.139,1262.235C3170.56,1252.646 3166.06,1243.227 3159.559,1235.72C3152.536,1227.61 3141.795,1218.918 3131,1213.57C3119.81,1208.027 3105.821,1204.267 3092.56,1202.459C3078.977,1200.608 3063.596,1199.774 3049.503,1202.459C3035.409,1205.145 3021.345,1212.286 3007.999,1218.571C2994.358,1224.994 2980.264,1234.593 2967.231,1243.859C2953.065,1253.93 2936.638,1266.016 2923,1279C2905.295,1295.857 2878.333,1324.333 2861,1345C2845.661,1363.289 2831.854,1383.615 2819,1403C2812.878,1412.232 2801.441,1428.557 2794,1442.849C2786.2,1457.831 2782.534,1470.578 2782.534,1470.578C2782.534,1470.578 2783.228,1419.676 2780.814,1396.523C2778.529,1374.607 2772.622,1350.165 2768.049,1331.664C2764.177,1315.993 2758.36,1302.051 2755.094,1286.847C2751.484,1270.043 2744.921,1249.254 2744,1235.72C2743.308,1225.548 2746.839,1214.687 2749.567,1205.643C2752.177,1196.992 2754.258,1188.338 2758.668,1180.643C2763.406,1172.373 2770.67,1161.379 2778,1152.769C2786.068,1143.292 2797.512,1132.824 2807.075,1123.78C2815.759,1115.566 2835.376,1101.757 2835.376,1101.757C2835.376,1101.757 2811.697,1108.731 2802.89,1113.442C2795.173,1117.569 2788.57,1123.685 2782.534,1130.022C2775.164,1137.761 2765.09,1150.887 2758.668,1159.875C2753.205,1167.519 2747.849,1175.842 2744,1183.946C2740.987,1190.29 2733.926,1209.519 2732,1223.002C2730,1237.003 2730.667,1254.272 2732,1267.953C2733.32,1281.501 2738.063,1303.063 2739.276,1310.085C2741.743,1322.08 2747.968,1369.101 2747.956,1398.921C2747.943,1433.264 2747.188,1472.436 2744,1482C2743.578,1483.265 2740.031,1510.671 2736,1523.476C2732.108,1535.839 2727.55,1549.147 2721.863,1561.371C2715.696,1574.625 2708.352,1589.14 2699,1603C2687.437,1620.137 2662.787,1646.658 2649.62,1659.824C2640.899,1668.546 2625.765,1682.277 2613.024,1692.547C2599.754,1703.243 2559.605,1730.567 2531.536,1747.442C2498.698,1767.185 2417.373,1810.657 2416,1811C2410.894,1812.277 2361.196,1837.024 2314.696,1861.357C2286.931,1875.885 2269.895,1882.361 2249.279,1893.469C2229.4,1904.179 2209.252,1914.705 2191,1928C2170.743,1942.755 2146.406,1963.333 2127.739,1982C2109.882,1999.857 2090.963,2026.494 2079,2040C2065.442,2055.307 2046,2091.711 2046,2091.711C2046,2091.711 2028.873,2126.92 2026.707,2145.968C2025.521,2156.393 2025.658,2173.143 2026.707,2183.149C2027.53,2191.006 2029.965,2199.488 2033,2206C2035.834,2212.081 2041.418,2218.719 2044.918,2222.219C2047.337,2224.638 2054,2227 2054,2227C2054,2227 2064.394,2231.388 2079,2230.617C2087.469,2230.17 2099.349,2227.212 2109.271,2224.459C2126.461,2219.689 2158.55,2211.461 2182.141,2202C2208.929,2191.257 2264.342,2162.176 2270,2160C2274.044,2158.444 2306.57,2138.314 2314.696,2135.267C2318.267,2133.928 2350.955,2114.498 2363.3,2106.915C2371.526,2101.862 2383.974,2099.142 2391.206,2091.711C2398.439,2084.28 2400.42,2072.071 2403.124,2065.313C2404.596,2061.635 2408.507,2057.698 2411.517,2054.145C2415.091,2049.927 2420.077,2044.58 2424.571,2040C2429.24,2035.241 2434.445,2030.285 2439.536,2025.591C2445.954,2019.674 2454.954,2011.206 2463.079,2004.497C2471.877,1997.232 2482.632,1988.779 2492.326,1982ZM2460.558,1968.172C2451.843,1971.671 2428.828,1973 2428.828,1973C2428.828,1973 2447.972,1962.637 2456.834,1956.471C2465.696,1950.304 2477.221,1942.912 2487.082,1936C2496.837,1929.162 2507.89,1919.188 2518.541,1911.188C2529.284,1903.12 2547.844,1887.374 2561.254,1875.541C2574.18,1864.135 2589.004,1849.963 2599,1840.188C2606.674,1832.685 2614.038,1824.862 2621.23,1816.895C2630.321,1806.826 2643.466,1792.719 2653.544,1779.774C2663.752,1766.664 2672.86,1752.097 2682.478,1738.231C2692.196,1724.221 2711.85,1695.713 2711.85,1695.713C2711.85,1695.713 2687.539,1754.332 2676.231,1774.213C2667.664,1789.275 2655.295,1804.861 2644,1819.574C2632.229,1834.906 2619.398,1850.871 2605.607,1866.205C2592.174,1881.14 2576.189,1894.87 2561.254,1907C2546.916,1918.646 2530.637,1929.699 2516,1938.984C2499.926,1949.179 2474.253,1962.672 2460.558,1968.172ZM2416,2067.105C2418.045,2073.24 2448.512,2072.944 2463.079,2067.105C2473.16,2063.063 2485.526,2054.326 2497.804,2044.914C2509.884,2035.654 2521.88,2025.74 2531.536,2019C2547.608,2007.781 2562.045,1993.421 2579.901,1985.558C2586.428,1982.683 2596.92,1980.059 2605.607,1977.974C2615.601,1975.577 2631.083,1974.086 2639.863,1971.173C2643.029,1970.122 2646.579,1969.698 2649.62,1968.172C2654.124,1965.911 2665.126,1962.502 2672.349,1958.568C2679.746,1954.54 2687.417,1948.479 2694,1944C2699.975,1939.935 2705.813,1935.666 2711.85,1931.694C2718.183,1927.527 2725.126,1923.204 2730.959,1917.959C2739.984,1909.843 2766,1883 2766,1883C2766,1883 2746.421,1899.557 2736,1907C2725.5,1914.5 2722.189,1917.451 2714.873,1922.064C2707.206,1926.897 2694.639,1933.91 2690,1936C2684.08,1938.667 2675.298,1942.469 2667.48,1944C2656.018,1946.244 2636.678,1947.931 2621.23,1949.465C2604.986,1951.077 2583.385,1951.086 2570.013,1953.675C2559.821,1955.649 2550.2,1959.316 2541,1963.826C2530.159,1969.139 2516.233,1977.538 2504.967,1985.558C2496.681,1991.456 2485.283,1998.76 2474.635,2007.254C2463.26,2016.327 2452.659,2026.623 2445,2033.643C2434.119,2043.616 2414.709,2063.231 2416,2067.105ZM2356.35,2080.107C2351.789,2089.259 2345.463,2099.638 2338.833,2106.915C2330.818,2115.714 2304.906,2133.794 2304.906,2133.794C2304.906,2133.794 2317.867,2114.747 2322.193,2106.915C2325.723,2100.526 2328.577,2093.442 2330.866,2086.807C2333.076,2080.397 2334.655,2073.765 2335.922,2067.105C2337.25,2060.122 2338.286,2050.942 2338.833,2044.914C2339.616,2036.29 2338.629,2027.508 2337.02,2019C2335.215,2009.449 2322.193,1982 2322.193,1982C2322.193,1982 2343.001,1997.788 2349.71,2004.497C2364.533,2019.32 2363.12,2039.351 2363.3,2052C2363.474,2064.294 2360.779,2071.221 2356.35,2080.107ZM2229,2125.142C2224.011,2122.569 2220.203,2114.582 2220.203,2106.915C2220.203,2105.4 2219.914,2100.473 2220.203,2097.271C2220.505,2093.92 2221.277,2089.404 2222.016,2086.807C2222.69,2084.44 2225.178,2078.627 2229.998,2073C2234.01,2068.314 2239.53,2066.077 2242.59,2065.313C2248.82,2063.756 2258.218,2070.133 2259.396,2077.467C2259.808,2080.034 2261.066,2085.296 2261.066,2089.269C2261.066,2093.507 2260.931,2098.583 2259.396,2102.893C2257.431,2108.406 2254.345,2118.642 2249.279,2122.35C2244.213,2126.058 2233.989,2127.714 2229,2125.142ZM2100.772,2206C2100.772,2206 2090.54,2214.493 2077.896,2219.12C2067.512,2222.92 2055.471,2220.839 2050,2214C2045.002,2207.752 2044.918,2202 2044.918,2202C2044.918,2202 2059.652,2208.464 2067.8,2208.495C2089.832,2208.578 2100.772,2206 2100.772,2206Z" style="fill:rgb(254,205,62);"/>
                </g>
                <g transform="matrix(-0.262265,0,0,0.262265,-10637.384284,264.004211)">
                    <path d="M2492.326,1982C2501.657,1975.476 2511.217,1969.217 2521.244,1963.826C2532.164,1957.956 2546.927,1951.748 2557.842,1946.778C2567.426,1942.416 2576.836,1939.51 2586.736,1934.01C2596.48,1928.597 2604.813,1916.335 2613.024,1907C2620.847,1898.106 2631.337,1886.372 2639.863,1875.541C2648.627,1864.406 2656.944,1851.911 2665.611,1840.188C2674.55,1828.098 2686.597,1813.491 2693.496,1803C2704.922,1785.627 2714.513,1766.894 2721.863,1747.442C2729.975,1725.971 2753.977,1669.446 2766,1634.372C2771.962,1616.98 2776.147,1591.726 2780.814,1574.101C2784.854,1558.844 2788.598,1543.455 2794,1528.625C2800.364,1511.154 2808.898,1488.216 2819,1469.275C2830.167,1448.338 2849.833,1413.736 2861,1396.523C2868.158,1385.49 2885.239,1360.421 2896.905,1345C2907.63,1330.825 2925.886,1308.377 2942.446,1291.995C2950.9,1283.633 2964.459,1270.068 2973.718,1262.235C2981.295,1255.825 2990.003,1248.681 2998.715,1242.677C3008.928,1235.638 3026.501,1227.448 3036.715,1223.002C3044.147,1219.767 3056.51,1215.595 3065.146,1214.428C3072.889,1213.381 3080.947,1213.008 3088.63,1214.428C3096.366,1215.857 3104.646,1218.932 3111.559,1223.002C3118.637,1227.168 3125.945,1232.751 3131,1237.639C3135.382,1241.877 3139.76,1246.372 3143.108,1251.519C3146.632,1256.936 3149.545,1263.751 3152.143,1270.143C3154.885,1276.889 3157.321,1284.636 3159.559,1291.995C3162.131,1300.449 3162.568,1324.293 3162.568,1324.293C3162.568,1324.293 3173.283,1305.054 3175.426,1294.711C3177.569,1284.368 3175.784,1272.067 3173.139,1262.235C3170.56,1252.646 3166.06,1243.227 3159.559,1235.72C3152.536,1227.61 3141.795,1218.918 3131,1213.57C3119.81,1208.027 3105.821,1204.267 3092.56,1202.459C3078.977,1200.608 3063.596,1199.774 3049.503,1202.459C3035.409,1205.145 3021.345,1212.286 3007.999,1218.571C2994.358,1224.994 2980.264,1234.593 2967.231,1243.859C2953.065,1253.93 2936.638,1266.016 2923,1279C2905.295,1295.857 2878.333,1324.333 2861,1345C2845.661,1363.289 2831.854,1383.615 2819,1403C2812.878,1412.232 2801.441,1428.557 2794,1442.849C2786.2,1457.831 2782.534,1470.578 2782.534,1470.578C2782.534,1470.578 2783.228,1419.676 2780.814,1396.523C2778.529,1374.607 2772.622,1350.165 2768.049,1331.664C2764.177,1315.993 2758.36,1302.051 2755.094,1286.847C2751.484,1270.043 2744.921,1249.254 2744,1235.72C2743.308,1225.548 2746.839,1214.687 2749.567,1205.643C2752.177,1196.992 2754.258,1188.338 2758.668,1180.643C2763.406,1172.373 2770.67,1161.379 2778,1152.769C2786.068,1143.292 2797.512,1132.824 2807.075,1123.78C2815.759,1115.566 2835.376,1101.757 2835.376,1101.757C2835.376,1101.757 2811.697,1108.731 2802.89,1113.442C2795.173,1117.569 2788.57,1123.685 2782.534,1130.022C2775.164,1137.761 2765.09,1150.887 2758.668,1159.875C2753.205,1167.519 2747.849,1175.842 2744,1183.946C2740.987,1190.29 2733.926,1209.519 2732,1223.002C2730,1237.003 2730.667,1254.272 2732,1267.953C2733.32,1281.501 2738.063,1303.063 2739.276,1310.085C2741.743,1322.08 2747.968,1369.101 2747.956,1398.921C2747.943,1433.264 2747.188,1472.436 2744,1482C2743.578,1483.265 2740.031,1510.671 2736,1523.476C2732.108,1535.839 2727.55,1549.147 2721.863,1561.371C2715.696,1574.625 2708.352,1589.14 2699,1603C2687.437,1620.137 2662.787,1646.658 2649.62,1659.824C2640.899,1668.546 2625.765,1682.277 2613.024,1692.547C2599.754,1703.243 2559.605,1730.567 2531.536,1747.442C2498.698,1767.185 2417.373,1810.657 2416,1811C2410.894,1812.277 2361.196,1837.024 2314.696,1861.357C2286.931,1875.885 2269.895,1882.361 2249.279,1893.469C2229.4,1904.179 2209.252,1914.705 2191,1928C2170.743,1942.755 2146.406,1963.333 2127.739,1982C2109.882,1999.857 2090.963,2026.494 2079,2040C2065.442,2055.307 2046,2091.711 2046,2091.711C2046,2091.711 2028.873,2126.92 2026.707,2145.968C2025.521,2156.393 2025.658,2173.143 2026.707,2183.149C2027.53,2191.006 2029.965,2199.488 2033,2206C2035.834,2212.081 2041.418,2218.719 2044.918,2222.219C2047.337,2224.638 2054,2227 2054,2227C2054,2227 2064.394,2231.388 2079,2230.617C2087.469,2230.17 2099.349,2227.212 2109.271,2224.459C2126.461,2219.689 2158.55,2211.461 2182.141,2202C2208.929,2191.257 2264.342,2162.176 2270,2160C2274.044,2158.444 2306.57,2138.314 2314.696,2135.267C2318.267,2133.928 2350.955,2114.498 2363.3,2106.915C2371.526,2101.862 2383.974,2099.142 2391.206,2091.711C2398.439,2084.28 2400.42,2072.071 2403.124,2065.313C2404.596,2061.635 2408.507,2057.698 2411.517,2054.145C2415.091,2049.927 2420.077,2044.58 2424.571,2040C2429.24,2035.241 2434.445,2030.285 2439.536,2025.591C2445.954,2019.674 2454.954,2011.206 2463.079,2004.497C2471.877,1997.232 2482.632,1988.779 2492.326,1982ZM2460.558,1968.172C2451.843,1971.671 2428.828,1973 2428.828,1973C2428.828,1973 2447.972,1962.637 2456.834,1956.471C2465.696,1950.304 2477.221,1942.912 2487.082,1936C2496.837,1929.162 2507.89,1919.188 2518.541,1911.188C2529.284,1903.12 2547.844,1887.374 2561.254,1875.541C2574.18,1864.135 2589.004,1849.963 2599,1840.188C2606.674,1832.685 2614.038,1824.862 2621.23,1816.895C2630.321,1806.826 2643.466,1792.719 2653.544,1779.774C2663.752,1766.664 2672.86,1752.097 2682.478,1738.231C2692.196,1724.221 2711.85,1695.713 2711.85,1695.713C2711.85,1695.713 2687.539,1754.332 2676.231,1774.213C2667.664,1789.275 2655.295,1804.861 2644,1819.574C2632.229,1834.906 2619.398,1850.871 2605.607,1866.205C2592.174,1881.14 2576.189,1894.87 2561.254,1907C2546.916,1918.646 2530.637,1929.699 2516,1938.984C2499.926,1949.179 2474.253,1962.672 2460.558,1968.172ZM2416,2067.105C2418.045,2073.24 2448.512,2072.944 2463.079,2067.105C2473.16,2063.063 2485.526,2054.326 2497.804,2044.914C2509.884,2035.654 2521.88,2025.74 2531.536,2019C2547.608,2007.781 2562.045,1993.421 2579.901,1985.558C2586.428,1982.683 2596.92,1980.059 2605.607,1977.974C2615.601,1975.577 2631.083,1974.086 2639.863,1971.173C2643.029,1970.122 2646.579,1969.698 2649.62,1968.172C2654.124,1965.911 2665.126,1962.502 2672.349,1958.568C2679.746,1954.54 2687.417,1948.479 2694,1944C2699.975,1939.935 2705.813,1935.666 2711.85,1931.694C2718.183,1927.527 2725.126,1923.204 2730.959,1917.959C2739.984,1909.843 2766,1883 2766,1883C2766,1883 2746.421,1899.557 2736,1907C2725.5,1914.5 2722.189,1917.451 2714.873,1922.064C2707.206,1926.897 2694.639,1933.91 2690,1936C2684.08,1938.667 2675.298,1942.469 2667.48,1944C2656.018,1946.244 2636.678,1947.931 2621.23,1949.465C2604.986,1951.077 2583.385,1951.086 2570.013,1953.675C2559.821,1955.649 2550.2,1959.316 2541,1963.826C2530.159,1969.139 2516.233,1977.538 2504.967,1985.558C2496.681,1991.456 2485.283,1998.76 2474.635,2007.254C2463.26,2016.327 2452.659,2026.623 2445,2033.643C2434.119,2043.616 2414.709,2063.231 2416,2067.105ZM2356.35,2080.107C2351.789,2089.259 2345.463,2099.638 2338.833,2106.915C2330.818,2115.714 2304.906,2133.794 2304.906,2133.794C2304.906,2133.794 2317.867,2114.747 2322.193,2106.915C2325.723,2100.526 2328.577,2093.442 2330.866,2086.807C2333.076,2080.397 2334.655,2073.765 2335.922,2067.105C2337.25,2060.122 2338.286,2050.942 2338.833,2044.914C2339.616,2036.29 2338.629,2027.508 2337.02,2019C2335.215,2009.449 2322.193,1982 2322.193,1982C2322.193,1982 2343.001,1997.788 2349.71,2004.497C2364.533,2019.32 2363.12,2039.351 2363.3,2052C2363.474,2064.294 2360.779,2071.221 2356.35,2080.107ZM2229,2125.142C2224.011,2122.569 2220.203,2114.582 2220.203,2106.915C2220.203,2105.4 2219.914,2100.473 2220.203,2097.271C2220.505,2093.92 2221.277,2089.404 2222.016,2086.807C2222.69,2084.44 2225.178,2078.627 2229.998,2073C2234.01,2068.314 2239.53,2066.077 2242.59,2065.313C2248.82,2063.756 2258.218,2070.133 2259.396,2077.467C2259.808,2080.034 2261.066,2085.296 2261.066,2089.269C2261.066,2093.507 2260.931,2098.583 2259.396,2102.893C2257.431,2108.406 2254.345,2118.642 2249.279,2122.35C2244.213,2126.058 2233.989,2127.714 2229,2125.142ZM2100.772,2206C2100.772,2206 2090.54,2214.493 2077.896,2219.12C2067.512,2222.92 2055.471,2220.839 2050,2214C2045.002,2207.752 2044.918,2202 2044.918,2202C2044.918,2202 2059.652,2208.464 2067.8,2208.495C2089.832,2208.578 2100.772,2206 2100.772,2206Z" style="fill:rgb(254,205,62);"/>
                </g>
            </g>
            <g transform="matrix(0.847242,0,0,0.847242,86.917892,39.651391)">
                <g transform="matrix(0.262265,0,0,0.262265,-11615.875904,330.860617)">
                    <path d="M1668.207,1314.946L1668.207,1252.089C1703.267,1235.183 1741.654,1208.028 1774.705,1210.064C1796.369,1211.399 1817.695,1223.544 1839.667,1237.685L1839.667,1303.379C1812.967,1290.297 1786.261,1273.551 1766.27,1273.618C1728.314,1273.747 1700.716,1304.227 1668.207,1314.946ZM1668.207,1403.76L1668.207,1337.081C1698.514,1326.915 1731.225,1296.573 1764.522,1296.971C1794.382,1297.328 1818.736,1311.946 1839.667,1325.917L1839.667,1392.219C1821.632,1379.797 1800.571,1366.731 1766.27,1366.599C1709.784,1366.382 1700.508,1395.105 1668.207,1403.76ZM1668.207,1492.337L1668.207,1427.135C1707.064,1417.433 1731.338,1386.743 1766.27,1386.446C1795.64,1386.197 1819.231,1402.137 1839.667,1416.916L1839.667,1479.263C1820.742,1466.723 1803.397,1450.805 1766.27,1449.492C1722.499,1447.943 1697.215,1483.193 1668.207,1492.337ZM1668.207,1580.206L1668.207,1515.173C1704.504,1509.019 1717.92,1477.969 1769.182,1477.969C1788.901,1477.969 1815.026,1493.243 1839.667,1505.879L1839.667,1566.484C1822.002,1555.475 1801.315,1542.657 1766.27,1542.254C1719.337,1541.714 1696.461,1572.207 1668.207,1580.206ZM2214.809,1273.124C2220.484,1255.387 2225.161,1237.206 2228.776,1218.647C2254.077,1236.584 2288.64,1258.351 2305.878,1257.129C2366.789,1252.814 2372.094,1209.506 2425.749,1210.064C2430.76,1210.116 2437.419,1211.871 2445.138,1214.831C2442.263,1237.32 2438.315,1259.476 2433.346,1281.245C2412.979,1280.859 2399.496,1279.984 2382.369,1285.01C2361.148,1291.236 2352.353,1318.123 2306.022,1318.604C2305.801,1318.606 2305.578,1318.61 2305.355,1318.604C2272.494,1317.786 2242.129,1292.051 2214.809,1273.124ZM2429.228,1298.286C2423.003,1322.689 2415.489,1346.578 2406.763,1369.878C2397.661,1370.236 2389.351,1371.102 2382.369,1372.64C2354.674,1378.741 2352.353,1408.942 2306.022,1409.423C2270.689,1409.79 2235.814,1368.054 2198.435,1366.599C2189.872,1366.266 2180.277,1368.517 2170.245,1372.167C2185.232,1346.919 2197.987,1320.194 2208.238,1292.265C2236.641,1309.039 2256.618,1337.728 2306.022,1336.981C2351.786,1339.557 2366.142,1306.799 2404.46,1299.398C2411.211,1298.095 2419.743,1297.832 2429.228,1298.286ZM2398.576,1390.704C2386.627,1419.714 2372.776,1447.742 2357.179,1474.634C2342.399,1485.175 2326.462,1494.265 2306.022,1494.477C2270.689,1494.844 2235.814,1452.694 2198.435,1451.24C2163.164,1449.868 2125.549,1494.383 2096.915,1497.983C2088.726,1499.013 2079.378,1496.467 2069.505,1492.316C2100.797,1465.347 2128.604,1434.443 2152.153,1400.376C2168.757,1393.287 2185.053,1387.736 2198.435,1388.204C2237.666,1389.576 2254.812,1430.87 2306.022,1427.799C2357.844,1424.692 2365.244,1397.904 2398.576,1390.704ZM2334.554,1511.02C2318.307,1535.444 2300.561,1558.785 2281.447,1580.913C2254.359,1568.041 2227.135,1539.835 2198.435,1538.718C2163.164,1537.346 2122.872,1584.558 2094.017,1583.975C2058.694,1583.261 2031.935,1542.18 2002.126,1542.254C2001.412,1542.255 2000.702,1542.262 1999.999,1542.274C2018.787,1531.143 2036.759,1518.777 2053.802,1505.288C2069.553,1513.671 2084.734,1520.742 2096.915,1519.794C2125.549,1517.565 2164.036,1474.069 2198.435,1475.272C2237.666,1476.643 2254.77,1518.478 2306.022,1516.225C2316.762,1515.753 2326.078,1513.798 2334.554,1511.02ZM1283.584,1639.751C1271.253,1628.46 1259.33,1616.732 1247.838,1604.59C1274.096,1591.746 1298.48,1566.647 1329.177,1565.607C1369.643,1564.235 1390.753,1607.949 1433.603,1608.583C1495.037,1609.492 1511.713,1567.201 1546.966,1568.573C1582.22,1569.945 1617.113,1611.954 1652.264,1611.954C1687.414,1611.954 1732.157,1569.341 1766.27,1568.573C1824.879,1567.254 1825.019,1612.483 1869.084,1611.954C1922.402,1612.781 1934.217,1567.427 1989.391,1568.573C2031.386,1569.446 2053.673,1608.606 2091.86,1608.583C2128.238,1608.56 2164.036,1564.404 2198.435,1565.607C2228.989,1566.675 2237.739,1590.565 2264.325,1600.018C2252.894,1612.313 2241.024,1624.196 2228.741,1635.64C2218.787,1630.63 2208.705,1627.026 2198.435,1626.627C2163.164,1625.254 2121.652,1670.444 2088.487,1671.612C2056.238,1672.749 2043.106,1631.986 1991.501,1630.532C1931.218,1628.833 1905.396,1670.601 1876.771,1671.612C1839.741,1672.921 1834.027,1629.647 1769.182,1628.978C1706.801,1628.336 1690.111,1671.612 1654.961,1671.612C1619.81,1671.612 1610.392,1628.179 1557.61,1628.978C1496.186,1629.909 1472.52,1669.714 1437.288,1668.618C1399.734,1667.449 1384.043,1629.433 1331.712,1628.978C1314.496,1628.829 1298.508,1633.534 1283.584,1639.751ZM1455.546,1755.579C1401.89,1730.089 1351.999,1697.943 1306.943,1660.21C1313.243,1658.474 1319.762,1657.338 1326.588,1657.102C1381.887,1655.191 1382.989,1696.929 1433.603,1699.154C1504.416,1702.266 1502.585,1656.614 1557.61,1657.102C1592.889,1657.415 1607.494,1699.249 1650.239,1699.154C1713.999,1699.012 1708.955,1657.443 1769.182,1657.102C1816.839,1656.832 1832.026,1698.126 1869.084,1699.154C1911.868,1700.341 1954.934,1657.102 1991.501,1657.102C2026.738,1657.102 2049.716,1697.472 2088.487,1699.154C2122.211,1700.617 2167.326,1655.899 2201.725,1657.102C2202.644,1657.134 2203.549,1657.184 2204.441,1657.251C2161.561,1693.641 2114.228,1724.94 2063.378,1750.209C2043.89,1738.655 2023.913,1714.375 1989.391,1714.607C1942.471,1714.923 1902.715,1757.586 1876.771,1758.057C1841.877,1758.691 1829.576,1716.309 1772.216,1714.607C1720.824,1713.082 1690.111,1758.057 1654.961,1758.057C1619.81,1758.057 1611.4,1715.926 1557.61,1714.607C1529.481,1713.918 1488.808,1743.116 1455.546,1755.579ZM2030.581,1765.455C1945.758,1802.226 1852.21,1822.612 1753.937,1822.612C1660.598,1822.612 1571.521,1804.221 1490.134,1770.868C1508.087,1758.895 1527.88,1747.772 1551.914,1748.474C1584.486,1749.425 1619.81,1791.501 1654.961,1791.501C1690.111,1791.501 1721.85,1748.452 1769.182,1748.474C1822.509,1748.498 1837.406,1792.238 1869.084,1791.501C1907.73,1790.602 1945.572,1749.284 1989.391,1748.474C2004.145,1748.201 2017.473,1756.819 2030.581,1765.455ZM1229.619,1584.583C1205.845,1557.442 1184.143,1528.442 1164.759,1497.831C1182.729,1508.337 1201.27,1518.717 1219.304,1517.698C1267.045,1515.001 1288.754,1476.642 1329.177,1475.272C1369.643,1473.9 1396.048,1520.235 1433.603,1519.794C1443.191,1519.681 1453.665,1517.131 1464.534,1513.339C1481.191,1525.802 1498.677,1537.216 1516.893,1547.485C1487.935,1563.16 1455.776,1584.665 1433.603,1583.975C1396.048,1582.806 1383.493,1536.16 1331.712,1538.718C1279.982,1541.274 1256.149,1574.848 1229.619,1584.583ZM1142.566,1460.227C1129.695,1436.768 1118.134,1412.49 1107.984,1387.491C1109.833,1387.637 1127.767,1390.372 1129.479,1390.704C1159.143,1396.465 1186.494,1431.098 1219.304,1429.741C1264.942,1427.853 1288.745,1387.51 1329.177,1386.446C1335.473,1386.281 1341.493,1386.766 1347.28,1387.746C1373.948,1429.031 1406.73,1466.005 1444.342,1497.381C1441.903,1497.738 1439.547,1497.947 1437.288,1497.983C1401.352,1498.568 1377.169,1449.492 1336.703,1449.492C1274.534,1449.492 1260.241,1494.477 1215.648,1494.477C1189.438,1494.477 1171.531,1470 1142.566,1460.227ZM1100.875,1369.247C1092.544,1346.938 1085.325,1324.089 1079.283,1300.767C1095.649,1298.391 1112.773,1297.11 1124.553,1299.398C1154.217,1305.16 1186.508,1342.015 1219.304,1340.352C1249.018,1338.845 1273.899,1312.973 1303.291,1301.9C1312.257,1324.797 1322.919,1346.846 1335.122,1367.893C1332.354,1367.829 1329.511,1367.861 1326.588,1368.002C1261.831,1371.109 1255.233,1409.423 1222.055,1409.423C1190.82,1409.423 1171.227,1372.649 1111.177,1369.436C1107.647,1369.247 1104.211,1369.19 1100.875,1369.247ZM1074.86,1282.692C1070.475,1263.671 1066.87,1244.353 1064.08,1224.774C1082.949,1216.78 1106.206,1208.89 1122.396,1210.064C1154.597,1212.398 1184.161,1255.456 1225.213,1254.163C1243.309,1253.593 1262.474,1244.28 1282.308,1233.817C1285.938,1249.7 1290.35,1265.286 1295.502,1280.533C1265.793,1296.49 1240.286,1320.595 1215.648,1320.595C1184.414,1320.595 1162.813,1283.843 1122.396,1280.63C1105.185,1279.262 1088.833,1280.504 1074.86,1282.692Z" style="fill:rgb(51,157,216);"/>
                </g>
                <g transform="matrix(0.255763,0,0,0.255763,-11594.72715,369.585723)">
                    <path d="M1008.444,1104.501C1003.718,1071.334 1001.273,1037.437 1001.273,1002.972C1001.273,638.353 1274.958,337.152 1627.93,293.77C1656.74,290.229 1686.079,288.405 1715.84,288.405C1745.601,288.405 1774.939,290.229 1803.75,293.77C2092.432,329.251 2328.08,537.187 2404.344,811.228L2173.429,811.228C2109.319,658.577 1971.014,544.653 1803.75,514.689L1803.75,897.454L1905.042,897.454L1905.042,1083.318L1803.75,1083.318L1803.75,1117.741C1781.219,1103.241 1759.351,1090.787 1737.136,1089.418C1703.244,1087.33 1663.881,1115.176 1627.93,1132.511L1627.93,514.69C1396.017,556.235 1219.777,759.184 1219.777,1002.972C1219.777,1041.056 1224.078,1078.144 1232.22,1113.775C1211.882,1124.503 1192.229,1134.053 1173.674,1134.638C1131.578,1135.964 1101.262,1091.812 1068.242,1089.418C1051.641,1088.215 1027.792,1096.305 1008.444,1104.501ZM2202.751,1098.219C2204.612,1088.666 2206.199,1079.015 2207.502,1069.275L2002.122,1069.275L2002.122,911.497L2424.595,911.497C2428.43,941.451 2430.407,971.983 2430.407,1002.972C2430.407,1033.913 2428.436,1064.397 2424.613,1094.306C2416.698,1091.271 2409.87,1089.472 2404.731,1089.418C2349.713,1088.846 2344.272,1133.255 2281.813,1137.68C2264.137,1138.932 2228.695,1116.613 2202.751,1098.219ZM1627.93,222.414L1627.93,115.527C1630.671,115.258 1633.415,115.002 1636.163,114.758L1795.516,114.758C1798.264,115.002 1801.009,115.258 1803.75,115.527L1803.75,222.414C1774.888,219.193 1745.555,217.54 1715.84,217.54C1686.124,217.54 1656.792,219.193 1627.93,222.414Z" style="fill:rgb(51,189,237);"/>
                </g>
            </g>
            <g transform="matrix(0.847242,0,0,0.847242,106.809507,39.651391)">
                <g>
                    <g transform="matrix(0.222083,0,0,0.222083,-11554.402936,417.806126)">
                        <g transform="matrix(107.239225,0,0,107.239225,1569.040163,1942.836289)">
                            <path d="M0.339,-0.127L0.343,-0.085L0.354,-0.061L0.377,-0.047L0.415,-0.039L0.476,-0.036L0.476,-0L0.115,-0L0.115,-0.036L0.192,-0.042L0.228,-0.055L0.245,-0.078L0.251,-0.127L0.251,-0.523L0.244,-0.552L0.224,-0.561L0.18,-0.545L0.108,-0.5L0.087,-0.538L0.315,-0.674L0.342,-0.674L0.339,-0.544L0.339,-0.127Z" style="fill-rule:nonzero;"/>
                        </g>
                        <g transform="matrix(107.239225,0,0,107.239225,1628.419695,1942.836289)">
                            <path d="M0.153,-0.019L0.153,-0.043L0.271,-0.073L0.352,-0.163L0.393,-0.318L0.388,-0.32L0.307,-0.277L0.221,-0.264L0.127,-0.288L0.068,-0.356L0.049,-0.458L0.063,-0.541L0.107,-0.61L0.179,-0.657L0.28,-0.674C0.342,-0.674 0.397,-0.655 0.436,-0.604C0.479,-0.547 0.49,-0.468 0.49,-0.4C0.49,-0.328 0.479,-0.255 0.45,-0.189C0.425,-0.133 0.39,-0.086 0.339,-0.051C0.289,-0.016 0.233,0.002 0.173,0.008L0.153,-0.019ZM0.254,-0.315L0.29,-0.318L0.323,-0.327L0.354,-0.343L0.382,-0.363L0.39,-0.374L0.395,-0.39L0.397,-0.422L0.384,-0.537L0.343,-0.609L0.274,-0.633L0.212,-0.62L0.171,-0.585L0.148,-0.533L0.141,-0.468L0.17,-0.355C0.191,-0.327 0.22,-0.315 0.254,-0.315Z" style="fill-rule:nonzero;"/>
                        </g>
                        <g transform="matrix(107.239225,0,0,107.239225,1687.799227,1942.836289)">
                            <path d="M0.387,-0.352L0.388,-0.346L0.471,-0.283L0.5,-0.184L0.472,-0.083L0.393,-0.016L0.271,0.008L0.157,-0.014L0.081,-0.077L0.054,-0.176L0.069,-0.25L0.107,-0.301L0.167,-0.338L0.166,-0.344C0.098,-0.374 0.061,-0.425 0.061,-0.5L0.089,-0.59L0.167,-0.652L0.28,-0.674L0.398,-0.655L0.47,-0.597L0.495,-0.508L0.468,-0.415L0.387,-0.352ZM0.153,-0.504L0.16,-0.45L0.182,-0.406L0.221,-0.377L0.28,-0.366L0.348,-0.382L0.389,-0.428L0.403,-0.499L0.387,-0.573L0.343,-0.618L0.279,-0.633C0.245,-0.633 0.21,-0.625 0.185,-0.599L0.153,-0.504ZM0.147,-0.184L0.155,-0.125L0.178,-0.077L0.219,-0.045L0.279,-0.034L0.348,-0.05L0.391,-0.099L0.406,-0.175L0.39,-0.256L0.345,-0.307L0.277,-0.325L0.216,-0.314L0.176,-0.284L0.154,-0.239L0.147,-0.184Z" style="fill-rule:nonzero;"/>
                        </g>
                        <g transform="matrix(107.239225,0,0,107.239225,1747.178758,1942.836289)">
                            <path d="M0.387,-0.352L0.388,-0.346L0.471,-0.283L0.5,-0.184L0.472,-0.083L0.393,-0.016L0.271,0.008L0.157,-0.014L0.081,-0.077L0.054,-0.176L0.069,-0.25L0.107,-0.301L0.167,-0.338L0.166,-0.344C0.098,-0.374 0.061,-0.425 0.061,-0.5L0.089,-0.59L0.167,-0.652L0.28,-0.674L0.398,-0.655L0.47,-0.597L0.495,-0.508L0.468,-0.415L0.387,-0.352ZM0.153,-0.504L0.16,-0.45L0.182,-0.406L0.221,-0.377L0.28,-0.366L0.348,-0.382L0.389,-0.428L0.403,-0.499L0.387,-0.573L0.343,-0.618L0.279,-0.633C0.245,-0.633 0.21,-0.625 0.185,-0.599L0.153,-0.504ZM0.147,-0.184L0.155,-0.125L0.178,-0.077L0.219,-0.045L0.279,-0.034L0.348,-0.05L0.391,-0.099L0.406,-0.175L0.39,-0.256L0.345,-0.307L0.277,-0.325L0.216,-0.314L0.176,-0.284L0.154,-0.239L0.147,-0.184Z" style="fill-rule:nonzero;"/>
                        </g>
                    </g>
                </g>
            </g>
        </g>
        <g transform="matrix(0.290392,0,0,0.290392,-39.28603,-25.793289)">
            <text x="2086.647px" y="574.227px" style="font-family:'Calibri-Bold', 'Calibri', sans-serif;font-weight:700;font-size:110.133px;">Guiuan De<tspan x="2564.766px 2615.853px 2671.296px " y="574.227px 574.227px 574.227px ">vel</tspan>opmen<tspan x="3019.762px " y="574.227px ">t</tspan></text>
            <g transform="matrix(110.132589,0,0,110.132589,2425.702272,668.648378)">
                <path d="M0.487,-0.469C0.5,-0.469 0.51,-0.466 0.515,-0.46C0.521,-0.454 0.523,-0.446 0.523,-0.435L0.523,-0.017C0.523,-0.013 0.522,-0.01 0.521,-0.008C0.519,-0.006 0.515,-0.004 0.511,-0.002C0.506,-0 0.5,0.001 0.492,0.002C0.484,0.003 0.474,0.003 0.462,0.003C0.45,0.003 0.44,0.003 0.432,0.002C0.424,0.001 0.418,-0 0.414,-0.002C0.409,-0.004 0.406,-0.006 0.404,-0.008C0.402,-0.01 0.401,-0.013 0.401,-0.017L0.401,-0.369L0.205,-0.369L0.205,-0.165C0.205,-0.141 0.209,-0.123 0.216,-0.111C0.224,-0.099 0.237,-0.093 0.256,-0.093C0.263,-0.093 0.269,-0.094 0.274,-0.095C0.279,-0.096 0.284,-0.097 0.288,-0.099C0.292,-0.1 0.295,-0.102 0.298,-0.103C0.301,-0.104 0.303,-0.104 0.306,-0.104C0.308,-0.104 0.309,-0.104 0.311,-0.103C0.313,-0.102 0.314,-0.099 0.315,-0.096C0.316,-0.093 0.317,-0.088 0.318,-0.082C0.319,-0.076 0.319,-0.069 0.319,-0.06C0.319,-0.045 0.319,-0.034 0.317,-0.027C0.315,-0.02 0.313,-0.014 0.31,-0.011C0.307,-0.008 0.303,-0.005 0.297,-0.002C0.291,0 0.284,0.002 0.277,0.004C0.269,0.006 0.261,0.007 0.252,0.008C0.243,0.009 0.234,0.01 0.225,0.01C0.2,0.01 0.179,0.007 0.161,0C0.143,-0.006 0.128,-0.015 0.117,-0.028C0.105,-0.041 0.096,-0.057 0.091,-0.077C0.085,-0.096 0.083,-0.119 0.083,-0.146L0.083,-0.369L0.03,-0.369C0.024,-0.369 0.019,-0.373 0.016,-0.381C0.013,-0.388 0.011,-0.401 0.011,-0.419C0.011,-0.428 0.012,-0.436 0.012,-0.443C0.013,-0.449 0.014,-0.455 0.016,-0.458C0.018,-0.462 0.02,-0.465 0.022,-0.466C0.025,-0.468 0.028,-0.469 0.031,-0.469L0.083,-0.469L0.083,-0.566C0.083,-0.569 0.083,-0.572 0.085,-0.575C0.087,-0.577 0.09,-0.58 0.095,-0.581C0.1,-0.583 0.106,-0.584 0.114,-0.585C0.122,-0.586 0.132,-0.586 0.144,-0.586C0.156,-0.586 0.166,-0.586 0.174,-0.585C0.182,-0.584 0.188,-0.583 0.192,-0.581C0.197,-0.58 0.2,-0.577 0.202,-0.575C0.204,-0.572 0.205,-0.569 0.205,-0.566L0.205,-0.469L0.487,-0.469ZM0.533,-0.6C0.533,-0.575 0.528,-0.558 0.518,-0.548C0.508,-0.539 0.489,-0.534 0.462,-0.534C0.434,-0.534 0.416,-0.539 0.406,-0.548C0.396,-0.557 0.392,-0.573 0.392,-0.597C0.392,-0.622 0.397,-0.639 0.406,-0.649C0.416,-0.658 0.435,-0.663 0.463,-0.663C0.49,-0.663 0.509,-0.658 0.519,-0.649C0.528,-0.64 0.533,-0.623 0.533,-0.6ZM0.339,-0.469" style="fill-rule:nonzero;"/>
            </g>
            <g transform="matrix(110.132589,0,0,110.132589,2425.702272,668.648378)">
            </g>
            <g transform="matrix(110.132589,0,0,110.132589,2463.442336,668.648378)">
            </g>
            <g transform="matrix(110.132589,0,0,110.132589,3253.901496,668.648378)">
            </g>
            <text x="2086.647px" y="668.648px" style="font-family:'Calibri-Bold', 'Calibri', sans-serif;font-weight:700;font-size:110.133px;">F<tspan x="2135.851px 2195.058px " y="668.648px 668.648px ">ou</tspan>nda<tspan x="2490.179px " y="668.648px ">o</tspan>n, Inc<tspan x="2795.786px 2854.994px " y="668.648px 668.648px ">or</tspan>por<tspan x="3049.177px 3102.523px 3139.359px 3194.802px " y="668.648px 668.648px 668.648px 668.648px ">ated</tspan></text>
        </g>
    </g>
</svg>
